HIERARCHY
ROOT Hips
{
	OFFSET 0.000000 100.481300 0.000000
	CHANNELS 6 Xposition Yposition Zposition Xrotation Yrotation Zrotation
	JOINT Spine
	{
		OFFSET -0.279200 12.230698 -2.892100
		CHANNELS 3 Xrotation Yrotation Zrotation
		JOINT Spine1
		{
			OFFSET -0.325700 14.269203 -3.374200
			CHANNELS 3 Xrotation Yrotation Zrotation
			JOINT Spine2
			{
				OFFSET -0.372300 16.307602 -0.352600
				CHANNELS 3 Xrotation Yrotation Zrotation
				JOINT Neck
				{
					OFFSET -0.418800 17.814194 8.416900
					CHANNELS 3 Xrotation Yrotation Zrotation
					JOINT Head
					{
						OFFSET 0.000000 7.031097 3.806800
						CHANNELS 3 Xrotation Yrotation Zrotation
						JOINT HeadTop_End
						{
							OFFSET 0.000000 24.646606 12.978600
							CHANNELS 3 Xrotation Yrotation Zrotation
							End Site
							{
								OFFSET 0.000000 27.854965 0.000000
							}
						}
					}
				}
				JOINT LeftShoulder
				{
					OFFSET 16.952999 14.495407 -7.737500
					CHANNELS 3 Xrotation Yrotation Zrotation
					JOINT LeftArm
					{
						OFFSET 9.308998 -2.777710 0.208600
						CHANNELS 3 Xrotation Yrotation Zrotation
						JOINT LeftForeArm
						{
							OFFSET 29.972298 0.000000 0.000000
							CHANNELS 3 Xrotation Yrotation Zrotation
							JOINT LeftHand
							{
								OFFSET 26.026505 0.000000 0.000000
								CHANNELS 3 Xrotation Yrotation Zrotation
								JOINT LeftHandThumb1
								{
									OFFSET 12.240501 -7.147949 9.207150
									CHANNELS 3 Xrotation Yrotation Zrotation
									JOINT LeftHandThumb2
									{
										OFFSET 4.138618 -2.389435 2.389433
										CHANNELS 3 Xrotation Yrotation Zrotation
										JOINT LeftHandThumb3
										{
											OFFSET 2.726913 -1.574387 1.574386
											CHANNELS 3 Xrotation Yrotation Zrotation
											JOINT LeftHandThumb4
											{
												OFFSET 3.941010 -2.275345 2.275342
												CHANNELS 3 Xrotation Yrotation Zrotation
												End Site
												{
													OFFSET -0.005798 5.087799 0.009903
												}
											}
										}
									}
								}
								JOINT LeftHandIndex1
								{
									OFFSET 24.424698 -1.985611 5.953459
									CHANNELS 3 Xrotation Yrotation Zrotation
									JOINT LeftHandIndex2
									{
										OFFSET 6.426697 0.000000 0.000000
										CHANNELS 3 Xrotation Yrotation Zrotation
										JOINT LeftHandIndex3
										{
											OFFSET 5.337898 0.000000 0.000000
											CHANNELS 3 Xrotation Yrotation Zrotation
											JOINT LeftHandIndex4
											{
												OFFSET 4.409401 0.000000 0.000000
												CHANNELS 3 Xrotation Yrotation Zrotation
												End Site
												{
													OFFSET 0.000000 4.409363 0.014373
												}
											}
										}
									}
								}
								JOINT LeftHandMiddle1
								{
									OFFSET 23.810104 0.000000 0.000000
									CHANNELS 3 Xrotation Yrotation Zrotation
									JOINT LeftHandMiddle2
									{
										OFFSET 7.176498 0.000000 0.000000
										CHANNELS 3 Xrotation Yrotation Zrotation
										JOINT LeftHandMiddle3
										{
											OFFSET 6.774902 0.000000 0.000000
											CHANNELS 3 Xrotation Yrotation Zrotation
											JOINT LeftHandMiddle4
											{
												OFFSET 5.403328 0.000000 0.000000
												CHANNELS 3 Xrotation Yrotation Zrotation
												End Site
												{
													OFFSET -0.027702 5.403244 0.017414
												}
											}
										}
									}
								}
								JOINT LeftHandRing1
								{
									OFFSET 22.908401 -0.839279 -6.020567
									CHANNELS 3 Xrotation Yrotation Zrotation
									JOINT LeftHandRing2
									{
										OFFSET 6.337502 0.000000 0.000000
										CHANNELS 3 Xrotation Yrotation Zrotation
										JOINT LeftHandRing3
										{
											OFFSET 5.779297 0.000000 0.000000
											CHANNELS 3 Xrotation Yrotation Zrotation
											JOINT LeftHandRing4
											{
												OFFSET 4.965698 0.000000 0.000000
												CHANNELS 3 Xrotation Yrotation Zrotation
												End Site
												{
													OFFSET 0.000000 4.965668 0.016186
												}
											}
										}
									}
								}
								JOINT LeftHandPinky1
								{
									OFFSET 20.037003 -1.530319 -10.950146
									CHANNELS 3 Xrotation Yrotation Zrotation
									JOINT LeftHandPinky2
									{
										OFFSET 5.254700 0.000000 0.000000
										CHANNELS 3 Xrotation Yrotation Zrotation
										JOINT LeftHandPinky3
										{
											OFFSET 4.810204 0.000000 0.000000
											CHANNELS 3 Xrotation Yrotation Zrotation
											JOINT LeftHandPinky4
											{
												OFFSET 3.647202 0.000000 0.000000
												CHANNELS 3 Xrotation Yrotation Zrotation
												End Site
												{
													OFFSET 0.000000 3.647186 0.011889
												}
											}
										}
									}
								}
							}
						}
					}
				}
				JOINT RightShoulder
				{
					OFFSET -15.141001 14.495407 -7.737500
					CHANNELS 3 Xrotation Yrotation Zrotation
					JOINT RightArm
					{
						OFFSET -9.308998 -2.777710 0.208500
						CHANNELS 3 Xrotation Yrotation Zrotation
						JOINT RightForeArm
						{
							OFFSET -29.972300 0.000000 0.000000
							CHANNELS 3 Xrotation Yrotation Zrotation
							JOINT RightHand
							{
								OFFSET -26.026505 0.000000 0.000000
								CHANNELS 3 Xrotation Yrotation Zrotation
								JOINT RightHandThumb1
								{
									OFFSET -12.240601 -7.148026 9.207092
									CHANNELS 3 Xrotation Yrotation Zrotation
									JOINT RightHandThumb2
									{
										OFFSET -4.138618 -2.389435 2.389433
										CHANNELS 3 Xrotation Yrotation Zrotation
										JOINT RightHandThumb3
										{
											OFFSET -2.726974 -1.574417 1.574421
											CHANNELS 3 Xrotation Yrotation Zrotation
											JOINT RightHandThumb4
											{
												OFFSET -3.941010 -2.275345 2.275343
												CHANNELS 3 Xrotation Yrotation Zrotation
												End Site
												{
													OFFSET 0.005814 5.087799 0.009927
												}
											}
										}
									}
								}
								JOINT RightHandIndex1
								{
									OFFSET -24.424698 -1.985657 5.953444
									CHANNELS 3 Xrotation Yrotation Zrotation
									JOINT RightHandIndex2
									{
										OFFSET -6.426697 0.000000 0.000000
										CHANNELS 3 Xrotation Yrotation Zrotation
										JOINT RightHandIndex3
										{
											OFFSET -5.337898 0.000000 0.000000
											CHANNELS 3 Xrotation Yrotation Zrotation
											JOINT RightHandIndex4
											{
												OFFSET -4.409401 0.000000 0.000000
												CHANNELS 3 Xrotation Yrotation Zrotation
												End Site
												{
													OFFSET 0.000000 4.409363 0.014408
												}
											}
										}
									}
								}
								JOINT RightHandMiddle1
								{
									OFFSET -23.810097 0.000000 0.000000
									CHANNELS 3 Xrotation Yrotation Zrotation
									JOINT RightHandMiddle2
									{
										OFFSET -7.176498 0.000000 0.000000
										CHANNELS 3 Xrotation Yrotation Zrotation
										JOINT RightHandMiddle3
										{
											OFFSET -6.774902 0.000000 0.000000
											CHANNELS 3 Xrotation Yrotation Zrotation
											JOINT RightHandMiddle4
											{
												OFFSET -5.403328 0.000000 0.000000
												CHANNELS 3 Xrotation Yrotation Zrotation
												End Site
												{
													OFFSET 0.027702 5.403244 0.017457
												}
											}
										}
									}
								}
								JOINT RightHandRing1
								{
									OFFSET -22.908302 -0.839325 -6.020576
									CHANNELS 3 Xrotation Yrotation Zrotation
									JOINT RightHandRing2
									{
										OFFSET -6.337502 0.000000 0.000000
										CHANNELS 3 Xrotation Yrotation Zrotation
										JOINT RightHandRing3
										{
											OFFSET -5.779297 0.000000 0.000000
											CHANNELS 3 Xrotation Yrotation Zrotation
											JOINT RightHandRing4
											{
												OFFSET -4.965698 0.000000 0.000000
												CHANNELS 3 Xrotation Yrotation Zrotation
												End Site
												{
													OFFSET 0.000000 4.965668 0.016226
												}
											}
										}
									}
								}
								JOINT RightHandPinky1
								{
									OFFSET -20.037003 -1.530334 -10.950259
									CHANNELS 3 Xrotation Yrotation Zrotation
									JOINT RightHandPinky2
									{
										OFFSET -5.254700 0.000000 0.000000
										CHANNELS 3 Xrotation Yrotation Zrotation
										JOINT RightHandPinky3
										{
											OFFSET -4.810204 0.000000 0.000000
											CHANNELS 3 Xrotation Yrotation Zrotation
											JOINT RightHandPinky4
											{
												OFFSET -3.647202 0.000000 0.000000
												CHANNELS 3 Xrotation Yrotation Zrotation
												End Site
												{
													OFFSET 0.000000 3.647186 0.011917
												}
											}
										}
									}
								}
							}
						}
					}
				}
			}
		}
	}
	JOINT LeftUpLeg
	{
		OFFSET 15.427100 -6.655098 0.678600
		CHANNELS 3 Xrotation Yrotation Zrotation
		JOINT LeftLeg
		{
			OFFSET 4.081073 -39.591068 13.024000
			CHANNELS 3 Xrotation Yrotation Zrotation
			JOINT LeftFoot
			{
				OFFSET -4.081074 -37.707932 -15.979700
				CHANNELS 3 Xrotation Yrotation Zrotation
				JOINT LeftToeBase
				{
					OFFSET 5.346399 -15.068900 20.645000
					CHANNELS 3 Xrotation Yrotation Zrotation
					JOINT LeftToe_End
					{
						OFFSET 2.754700 0.931300 11.300900
						CHANNELS 3 Xrotation Yrotation Zrotation
						End Site
						{
							OFFSET 0.000000 11.669021 0.000000
						}
					}
				}
			}
		}
	}
	JOINT RightUpLeg
	{
		OFFSET -15.569500 -6.655098 0.678600
		CHANNELS 3 Xrotation Yrotation Zrotation
		JOINT RightLeg
		{
			OFFSET -4.081825 -39.591045 13.023800
			CHANNELS 3 Xrotation Yrotation Zrotation
			JOINT RightFoot
			{
				OFFSET 4.081824 -37.707954 -15.979600
				CHANNELS 3 Xrotation Yrotation Zrotation
				JOINT RightToeBase
				{
					OFFSET -5.346400 -15.068900 20.645000
					CHANNELS 3 Xrotation Yrotation Zrotation
					JOINT RightToe_End
					{
						OFFSET -2.754700 0.931300 11.300900
						CHANNELS 3 Xrotation Yrotation Zrotation
						End Site
						{
							OFFSET 0.000000 11.669021 0.000000
						}
					}
				}
			}
		}
	}
}
MOTION
Frames: 4
Frame Time: 0.033333
37.890411 88.229881 108.503342 -31.170559 83.858494 21.108520 2.326550 -2.611625 4.204273 4.468028 -3.762244 2.685372 4.468029 -3.762225 2.685369 -1.566743 3.101802 -0.636369 1.316973 10.528997 -2.122863 0.000001 -0.000000 0.000000 0.611576 -10.624171 -9.181221 -2.794531 -5.614307 -63.519776 17.523349 -21.100915 7.212050 -3.879242 -8.138959 16.483668 25.111247 -2.687298 20.499080 9.304967 24.441193 -0.847852 -2.521163 -8.459259 -4.290578 0.000001 0.000004 -0.000001 0.599987 6.911490 -23.883887 2.733480 1.542678 -36.765969 4.400528 -2.444495 -4.361226 0.000001 0.000001 -0.000002 0.976150 7.422054 -32.221735 5.809223 1.256783 -45.781126 5.743670 -0.254558 -5.489729 -0.000002 -0.000002 0.000003 -1.227814 6.340732 -44.477871 7.491179 2.055245 -50.574446 5.786966 -0.288649 -9.889678 -0.000002 -0.000001 0.000000 -5.698667 1.174833 -43.952745 10.001163 3.459243 -50.341971 10.463894 6.463300 -29.880411 0.000002 0.000001 -0.000001 0.778947 1.406570 19.946411 -4.848472 -9.559629 62.237216 18.533985 11.225811 -4.095335 -3.198688 16.403773 -11.963194 3.824836 -12.345968 -1.042565 4.523896 -9.504797 0.488640 3.860022 -12.119582 -3.867358 0.000001 0.000001 0.000002 3.545365 -9.668653 69.326680 8.886357 -3.241703 112.372560 5.374737 0.824720 34.768139 -0.000000 -0.000001 0.000000 5.660023 -9.815689 93.151698 8.809075 -2.682469 83.366297 6.985502 2.802874 35.996477 -0.000000 0.000000 0.000000 4.831721 -12.380567 97.852487 10.912791 -3.225620 91.663502 8.357672 3.303299 55.647102 0.000001 0.000002 -0.000001 0.269995 -10.740413 93.149772 10.737841 -3.968362 60.274302 11.067065 -1.040083 24.703589 -0.000001 -0.000000 0.000002 -5.089944 2.705119 12.614038 50.493096 -0.844764 0.076276 38.152580 3.867467 11.172643 -68.653776 14.636397 -10.471722 0.000001 0.000000 0.000000 -25.423486 -1.204057 10.078315 24.872451 -5.402634 -0.013280 -0.186595 -0.637793 0.106296 5.764603 -0.000015 0.000160 -0.000000 0.000000 -0.000000 
41.061157 88.424088 111.020981 -55.555461 85.788207 46.679883 2.389518 -2.557221 4.186882 4.577934 -3.694531 2.297621 4.577933 -3.694539 2.297624 -1.957992 2.564549 -0.460130 1.235558 9.100016 -1.575308 -0.000000 -0.000000 0.000000 0.571935 -10.541390 -9.811794 -2.866433 -5.672014 -63.424378 15.543984 -19.545184 6.219579 -4.084227 -7.952074 13.859238 25.111247 -2.687302 20.499085 9.304961 24.441188 -0.847854 -2.521163 -8.459264 -4.290576 -0.000000 0.000001 -0.000002 0.599987 6.911489 -23.883889 2.733484 1.542680 -36.765969 4.400527 -2.444494 -4.361227 0.000002 -0.000003 -0.000004 0.976155 7.422053 -32.221738 5.809223 1.256782 -45.781122 5.743669 -0.254560 -5.489732 0.000002 -0.000002 -0.000001 -1.227812 6.340732 -44.477867 7.491175 2.055245 -50.574443 5.786970 -0.288642 -9.889681 0.000001 -0.000001 0.000000 -5.698667 1.174830 -43.952749 10.001160 3.459243 -50.341971 10.463891 6.463302 -29.880414 -0.000003 -0.000000 0.000000 0.785182 1.377776 19.894289 -4.913870 -8.179125 62.492611 19.081867 10.727851 -4.096677 -3.341357 15.667090 -12.594199 3.824835 -12.345966 -1.042564 4.523898 -9.504798 0.488640 3.860022 -12.119580 -3.867350 0.000001 -0.000001 0.000001 3.545365 -9.668654 69.326686 8.886357 -3.241703 112.372567 5.374736 0.824720 34.768139 0.000000 -0.000000 -0.000000 5.660024 -9.815689 93.151698 8.809075 -2.682469 83.366304 6.985503 2.802874 35.996477 -0.000000 -0.000001 0.000000 4.831721 -12.380567 97.852487 10.912792 -3.225619 91.663495 8.357673 3.303297 55.647102 0.000000 -0.000001 0.000001 0.269995 -10.740413 93.149772 10.737839 -3.968362 60.274302 11.067063 -1.040083 24.703584 0.000000 -0.000001 -0.000001 -8.303803 1.209485 11.939857 55.913045 6.940154 -0.348245 25.369269 3.317646 16.596975 -38.421815 17.684338 -26.177369 0.000002 -0.000001 -0.000000 -22.759263 -1.593544 9.756937 26.838214 -7.270973 -0.046825 -3.424869 -0.636621 -0.567007 6.150866 -0.000013 0.000159 0.000000 -0.000001 0.000000 
44.545822 89.020950 113.360870 -83.540870 86.858799 76.300248 2.245970 -2.361440 4.033629 4.291666 -3.477510 1.807886 4.291667 -3.477505 1.807885 -2.222413 2.044131 -0.305730 1.145543 7.705303 -0.911001 -0.000000 -0.000000 -0.000000 0.515486 -10.135120 -10.800988 -2.573627 -6.668040 -62.441043 15.164733 -18.775787 5.948195 -4.407823 -7.932564 10.319608 25.111249 -2.687298 20.499081 9.304966 24.441198 -0.847854 -2.521161 -8.459264 -4.290576 -0.000000 0.000000 0.000004 0.599986 6.911491 -23.883887 2.733479 1.542679 -36.765969 4.400525 -2.444494 -4.361226 0.000002 -0.000001 -0.000002 0.976154 7.422053 -32.221732 5.809217 1.256783 -45.781119 5.743669 -0.254560 -5.489730 -0.000003 0.000000 0.000004 -1.227814 6.340734 -44.477867 7.491178 2.055245 -50.574443 5.786970 -0.288645 -9.889677 0.000001 -0.000002 0.000001 -5.698667 1.174832 -43.952749 10.001154 3.459241 -50.341967 10.463890 6.463303 -29.880411 0.000001 0.000003 -0.000002 0.769334 1.567539 19.956846 -4.646935 -6.334649 62.560353 18.555776 10.869791 -4.002033 -3.674153 14.651266 -12.574141 3.824836 -12.345965 -1.042561 4.523897 -9.504798 0.488638 3.860022 -12.119581 -3.867358 0.000000 -0.000001 0.000000 3.545366 -9.668651 69.326686 8.886356 -3.241703 112.372560 5.374737 0.824722 34.768139 -0.000001 -0.000001 -0.000001 5.660024 -9.815688 93.151698 8.809074 -2.682468 83.366304 6.985503 2.802874 35.996480 -0.000000 -0.000001 0.000000 4.831722 -12.380562 97.852487 10.912790 -3.225619 91.663495 8.357672 3.303300 55.647098 0.000001 0.000000 -0.000000 0.269994 -10.740410 93.149772 10.737840 -3.968361 60.274295 11.067066 -1.040083 24.703582 -0.000000 -0.000002 -0.000000 -11.441364 1.137561 9.640694 57.873689 11.142643 -0.492421 14.277167 1.694291 17.904853 -24.938431 11.810274 -29.170932 -0.000001 -0.000001 -0.000000 -20.051555 -2.226054 9.267839 27.564724 -8.179142 -0.072487 -6.487510 -0.530437 -1.490751 4.543529 0.000032 0.000119 0.000000 0.000001 0.000000 
48.229908 89.570251 115.344254 -94.972216 87.397379 89.660897 2.021978 -2.019074 3.702906 3.868220 -3.049284 1.261887 3.868216 -3.049252 1.261884 -2.351217 1.636395 -0.177886 0.713679 6.626659 -0.390937 -0.000000 0.000000 -0.000000 0.463537 -9.347551 -12.000198 -1.810888 -7.960132 -60.945594 16.589676 -18.720765 6.242756 -4.859449 -8.133781 6.101287 25.111247 -2.687300 20.499080 9.304962 24.441198 -0.847853 -2.521162 -8.459261 -4.290575 0.000002 0.000000 0.000002 0.599990 6.911488 -23.883887 2.733484 1.542678 -36.765973 4.400529 -2.444495 -4.361233 -0.000002 -0.000003 -0.000002 0.976152 7.422054 -32.221732 5.809220 1.256783 -45.781122 5.743669 -0.254563 -5.489732 0.000003 -0.000004 0.000001 -1.227813 6.340731 -44.477867 7.491172 2.055243 -50.574443 5.786967 -0.288649 -9.889679 -0.000000 -0.000001 0.000001 -5.698666 1.174832 -43.952749 10.001157 3.459242 -50.341971 10.463888 6.463301 -29.880408 -0.000002 0.000001 0.000000 0.727185 2.002826 20.088319 -4.224939 -4.270965 62.434725 17.508176 11.381449 -3.870590 -4.078059 13.409448 -12.367043 3.824836 -12.345966 -1.042565 4.523896 -9.504798 0.488639 3.860020 -12.119580 -3.867353 -0.000001 -0.000001 0.000000 3.545366 -9.668652 69.326686 8.886354 -3.241704 112.372560 5.374738 0.824722 34.768142 -0.000000 -0.000000 -0.000002 5.660025 -9.815689 93.151698 8.809075 -2.682470 83.366304 6.985502 2.802873 35.996477 0.000001 -0.000001 0.000000 4.831721 -12.380566 97.852493 10.912793 -3.225619 91.663502 8.357674 3.303300 55.647105 0.000001 -0.000000 -0.000002 0.269994 -10.740411 93.149778 10.737840 -3.968361 60.274302 11.067062 -1.040083 24.703587 -0.000001 -0.000001 0.000001 -14.297262 1.881334 7.065340 57.701759 14.298185 -0.452175 7.342914 0.738255 12.324244 -20.473844 7.395398 -24.144616 0.000002 -0.000002 -0.000000 -17.550936 -3.004194 8.751813 28.159270 -7.684822 -0.157012 -10.037176 -0.287578 -2.719098 3.692642 0.000011 -0.000230 -0.000000 0.000001 0.000000 
